<svg width="162" height="116" viewBox="0 0 162 92" fill="none" xmlns="http://www.w3.org/2000/svg">
<g filter="url(#filter0_d_159_12)">
<path fill-rule="evenodd" clip-rule="evenodd" d="M63.1026 69.2985H103.241C104.077 69.2985 104.447 68.1642 104.415 67.7426C104.396 67.4856 103.76 66.0506 103.62 65.6878C102.46 62.6652 102.451 58.9042 103.546 55.8637C104.084 54.37 104.688 53.3969 105.397 52.0576C97.2497 52.0576 99.6987 51.5628 92.2986 54.045C88.3238 55.3784 84.5606 56.4386 80.6488 57.7512C76.8494 59.0254 72.775 60.1813 68.9956 61.4526C67.9896 61.7913 67.1311 62.0079 66.0964 62.3249C63.1118 63.2397 64.4981 62.6303 62.5982 68.3196C62.3999 68.9136 62.1304 69.2985 63.1026 69.2985Z" fill="white"/>
<path fill-rule="evenodd" clip-rule="evenodd" d="M107.013 59.8697V61.4864C107.013 66.4559 112.011 71.4538 116.981 71.4538H118.597C123.567 71.4538 128.564 66.4559 128.564 61.4864V59.8697C128.564 54.9002 123.567 49.9024 118.597 49.9024H116.981C112.011 49.9024 107.013 54.9002 107.013 59.8697Z" fill="white"/>
<path fill-rule="evenodd" clip-rule="evenodd" d="M20 63.1027C20.0225 63.1651 20.0758 63.1881 20.0912 63.2805L20.5074 63.942C21.3117 65.0042 25.5264 69.2985 26.1958 69.2985H38.8575C41.3776 69.2985 35.9457 66.3293 39.1591 57.747C40.9548 52.9495 45.282 50.8659 50.0291 50.0291C52.3443 49.6213 51.6407 49.116 53.4665 47.2706C54.4804 46.2459 55.653 45.2478 56.5578 44.1656L61.0611 39.2407C61.6489 38.4842 62.0759 38.2389 62.5636 37.5103L62.01 36.4406C58.8509 38.1123 54.787 41.1065 51.6045 42.9843L20 63.1027Z" fill="white"/>
<path fill-rule="evenodd" clip-rule="evenodd" d="M42.3595 62.2945C42.3595 74.5425 59.6003 74.5529 59.6003 62.2945C59.6003 57.9707 55.3568 54.2125 51.7882 54.2125H50.4411C46.2838 54.2125 42.3595 58.1369 42.3595 62.2945Z" fill="white"/>
<path fill-rule="evenodd" clip-rule="evenodd" d="M70.8501 32.597L73.9376 35.8353L57.9181 51.9919C59.2411 52.8996 60.1555 54.0409 61.2164 54.7516L69.5038 46.6058C70.763 48.9289 72.952 50.8759 74.1476 53.1353C75.6422 52.7871 77.183 52.1481 78.7272 51.7882C77.6662 49.7833 73.0987 44.5543 72.8004 43.4371L77.0456 39.0616C77.7787 39.5744 77.5396 39.5019 78.084 40.0392C78.451 40.4012 78.6884 40.5832 79.0654 40.9436C79.7844 41.6313 80.6088 42.1436 80.882 43.1675C81.8913 42.898 83.5584 40.7657 84.1149 39.9351L73.9443 29.6316L70.8501 32.597Z" fill="white"/>
<path fill-rule="evenodd" clip-rule="evenodd" d="M132.874 60.4088C132.874 68.8207 125.717 72.0832 139.718 62.9423C140.389 62.5045 141.495 62.045 141.495 61.2169V52.0576C124.308 52.0576 132.874 51.2087 132.874 60.4088Z" fill="white"/>
<path fill-rule="evenodd" clip-rule="evenodd" d="M107.013 25.6572V47.7472H111.324V20C110.241 20.5728 109.227 20.9785 108.46 21.9857C107.784 22.8738 107.013 24.2276 107.013 25.6572Z" fill="white"/>
<path fill-rule="evenodd" clip-rule="evenodd" d="M115.634 46.131C118.512 45.4607 121.376 44.6463 124.254 43.9757V34.2779C121.376 33.6072 118.512 32.7933 115.634 32.1226V46.131Z" fill="white"/>
<path fill-rule="evenodd" clip-rule="evenodd" d="M128.564 41.2818H135.03C136.333 41.2818 137.185 40.4299 137.185 39.127C137.185 37.8236 136.333 36.9717 135.03 36.9717H128.564V41.2818Z" fill="white"/>
</g>
<defs>
<filter id="filter0_d_159_12" x="0" y="0" width="161.495" height="91.4844" filterUnits="userSpaceOnUse" color-interpolation-filters="sRGB">
<feFlood flood-opacity="0" result="BackgroundImageFix"/>
<feColorMatrix in="SourceAlpha" type="matrix" values="0 0 0 0 0 0 0 0 0 0 0 0 0 0 0 0 0 0 127 0" result="hardAlpha"/>
<feOffset/>
<feGaussianBlur stdDeviation="10"/>
<feComposite in2="hardAlpha" operator="out"/>
<feColorMatrix type="matrix" values="0 0 0 0 0.839216 0 0 0 0 0 0 0 0 0 0 0 0 0 0.75 0"/>
<feBlend mode="normal" in2="BackgroundImageFix" result="effect1_dropShadow_159_12"/>
<feBlend mode="normal" in="SourceGraphic" in2="effect1_dropShadow_159_12" result="shape"/>
</filter>
</defs>
</svg>
