<svg width="162" height="116" viewBox="0 0 119 119" fill="none" xmlns="http://www.w3.org/2000/svg">
<g filter="url(#filter0_d_159_26)">
<path fill-rule="evenodd" clip-rule="evenodd" d="M41.3635 50.6802L41.537 49.6381C43.5281 49.1614 45.6645 50.2269 47.2687 51.0272C52.3253 53.5502 58.3957 58.9499 61.8336 63.2095C62.3439 63.8417 62.8041 64.3311 63.3237 65.0198C64.7089 66.857 66.3091 69.2196 67.302 71.2882C68.3198 73.4075 68.6293 74.4974 68.4577 76.5588C64.9483 77.3991 59.3165 73.3851 56.797 71.3725C56.1721 70.8729 55.5842 70.4362 54.9622 69.9068C53.2353 68.4372 51.6195 66.7453 50.0037 65.1393L46.9451 61.5986C45.0573 59.0498 41.3635 54.0893 41.3635 50.6802ZM31.6368 64.2273C31.6368 65.3391 36.8591 69.8805 38.0884 70.8022C45.3965 76.2838 58.2198 81.4218 67.0681 81.4218C67.8933 81.4218 69.6792 80.6254 70.4216 80.2593C71.2833 79.8338 72.1154 78.7575 72.5107 77.8329C74.7203 72.6574 66.9179 61.9978 63.3782 58.5385L61.2097 56.191C56.7039 51.8549 48.6452 45.296 42.0581 45.296C39.9232 45.296 38.2508 46.5789 37.6113 48.1441C36.8704 49.9573 36.3015 51.5804 35.5806 53.4083L31.6368 64.2273Z" fill="white"/>
<path fill-rule="evenodd" clip-rule="evenodd" d="M59.0786 84.3747C55.9371 84.3045 45.299 79.7344 42.7512 78.4705C38.764 76.493 36.1709 74.3912 32.8271 71.7215C31.8011 70.9027 30.9413 69.6139 29.9001 68.9169L26.8386 77.1452C26.3116 78.6128 25.9763 78.4661 26.9185 79.7129C31.1713 85.3437 38.2162 87.1818 44.8496 88.53C46.0238 88.7689 46.9636 89.0487 48.0423 88.6246L57.7977 85.0035C58.4674 84.7788 58.7399 84.8378 59.0786 84.3747Z" fill="white"/>
<path fill-rule="evenodd" clip-rule="evenodd" d="M91.731 52.2433C90.7922 51.9923 88.4144 49.4645 86.1732 49.4645C84.3683 49.4645 82.8749 50.5125 82.1004 51.6438C81.165 53.0096 81.1366 54.8599 81.1366 57.1064C80.2393 56.5054 79.4847 55.9366 78.5245 55.3761C77.4887 54.7721 76.4262 54.4514 75.0814 54.6844C72.7349 55.0919 71.3915 56.988 70.6481 59.1229C69.2736 63.0697 69.2585 64.2561 71.9779 64.7021C75.3782 65.2597 74.9746 65.4103 76.0995 60.5799C77.5209 60.9596 79.7646 64.2746 83.3774 62.9946C84.5048 62.5954 85.6108 61.6551 86.1051 60.5121C86.6885 59.1634 86.6944 57.6046 86.6944 55.7168C87.4392 56.2159 88.0581 56.6907 88.875 57.1835C91.7714 58.9304 94.9192 58.3109 96.4258 55.3746C96.9932 54.2691 99.5118 48.9888 96.8773 48.3127C96.3772 48.1845 94.2329 47.7892 93.9604 47.7819C92.3948 47.7381 92.3096 49.7609 91.731 52.2433Z" fill="white"/>
<path fill-rule="evenodd" clip-rule="evenodd" d="M62.3788 31.4014C59.7423 31.4014 56.9006 31.4248 55.5426 33.7708C53.9643 36.498 55.0367 38.3482 56.6476 40.606C56.9727 41.0613 57.35 41.3776 57.5157 41.9962C56.9225 42.1341 53.9273 42.76 53.5657 43.0841C52.6664 43.8913 53.2274 45.5261 53.5549 46.9986C53.8074 48.1339 54.3967 48.3932 55.4573 48.2855C61.188 47.7045 65.4443 44.076 62.5217 39.2475C62.0162 38.4126 61.5122 37.7399 60.9892 36.959C63.6257 36.959 66.4669 36.9357 67.8249 34.5897C69.4032 31.863 68.3308 30.0122 66.7199 27.7544C66.3948 27.2992 66.0176 26.9833 65.8523 26.3648L69.3598 25.5303C70.6773 25.0434 70.206 23.6776 69.9978 22.3927C69.5523 19.6412 68.7096 19.4506 64.525 20.869C60.6719 22.1749 58.6944 25.33 60.5847 28.6796C61.1852 29.7432 61.752 30.465 62.3788 31.4014Z" fill="white"/>
<path fill-rule="evenodd" clip-rule="evenodd" d="M65.8525 49.2905C65.8525 50.2425 66.1215 50.1718 67.1027 50.8196C68.8535 51.9753 68.8408 52.2254 70.1447 50.457C70.5312 49.9325 70.8691 49.4914 71.2878 48.9942C73.2219 46.6979 74.5243 45.6948 76.6656 43.7772C77.6054 42.9354 78.7152 42.2243 79.7812 41.5092C82.9261 39.4001 86.8889 37.4942 90.8161 36.7387C91.497 36.6081 92.2302 36.4672 93.1207 36.438C95.4609 36.362 95.0314 36.0685 95.0314 32.7906C95.0314 30.5961 85.4408 33.8103 84.7091 34.1052C79.5278 36.1953 75.0288 39.1593 71.1064 43.0816C70.1248 44.0633 69.1094 44.9188 68.2837 45.9901C67.924 46.4571 65.8525 48.827 65.8525 49.2905Z" fill="white"/>
<path fill-rule="evenodd" clip-rule="evenodd" d="M19.9999 96.0116C19.9999 97.2755 20.8203 98.0958 22.0842 98.0958C22.9611 98.0958 25.6064 96.985 26.5262 96.6321C27.7053 96.1802 38.8927 91.904 39.6263 91.8431C39.232 91.3045 39.5117 91.6038 38.7065 91.3737C38.2493 91.2431 38.0919 91.2109 37.6152 91.0749C34.4313 90.1678 30.1692 88.298 27.6813 86.246L24.516 83.5061C24.0671 84.3543 23.7405 85.5133 23.3505 86.5096C22.8056 87.9027 19.9999 95.0806 19.9999 96.0116Z" fill="white"/>
<path fill-rule="evenodd" clip-rule="evenodd" d="M91.9051 23.412C91.9051 22.4551 91.6029 22.5014 90.8196 21.7186C88.942 19.841 89.2086 20.2934 86.0432 23.4553C84.3494 25.1477 84.1603 24.9595 85.8692 26.6685C87.5781 28.3774 87.3905 28.1888 89.0823 26.4949C89.5917 25.9851 91.9051 24.0144 91.9051 23.412Z" fill="white"/>
<path fill-rule="evenodd" clip-rule="evenodd" d="M79.7471 69.6114C79.7471 73.9788 78.6627 73.0854 85.9999 73.0854C87.0279 73.0854 86.6945 71.4252 86.6945 69.6114C86.6945 69.2049 86.4064 68.9169 85.9999 68.9169H80.4417C80.0352 68.9169 79.7471 69.2049 79.7471 69.6114Z" fill="white"/>
<path fill-rule="evenodd" clip-rule="evenodd" d="M45.0104 26.5383V32.096C45.0104 33.1244 46.6707 32.7905 48.4844 32.7905C48.8909 32.7905 49.179 32.5025 49.179 32.096V26.5383C49.179 25.5098 47.5192 25.8437 45.705 25.8437C45.2985 25.8437 45.0104 26.1318 45.0104 26.5383Z" fill="white"/>
</g>
<defs>
<filter id="filter0_d_159_26" x="-6.10352e-05" y="0" width="118.057" height="118.096" filterUnits="userSpaceOnUse" color-interpolation-filters="sRGB">
<feFlood flood-opacity="0" result="BackgroundImageFix"/>
<feColorMatrix in="SourceAlpha" type="matrix" values="0 0 0 0 0 0 0 0 0 0 0 0 0 0 0 0 0 0 127 0" result="hardAlpha"/>
<feOffset/>
<feGaussianBlur stdDeviation="10"/>
<feComposite in2="hardAlpha" operator="out"/>
<feColorMatrix type="matrix" values="0 0 0 0 0.839216 0 0 0 0 0 0 0 0 0 0 0 0 0 0.75 0"/>
<feBlend mode="normal" in2="BackgroundImageFix" result="effect1_dropShadow_159_26"/>
<feBlend mode="normal" in="SourceGraphic" in2="effect1_dropShadow_159_26" result="shape"/>
</filter>
</defs>
</svg>
