<svg width="63" height="200" viewBox="0 0 63 200" fill="none" xmlns="http://www.w3.org/2000/svg">
<path d="M24.1943 33.9316L28.4555 38.1928L24.7763 48.1229C24.3539 49.2304 23.3027 49.9062 22.2046 49.9062C21.8854 49.9062 21.5757 49.8499 21.2566 49.7466C19.8393 49.221 19.0979 47.6442 19.6235 46.227L24.1943 33.9316Z" fill="white"/>
<path d="M16.254 23.0539L18.7788 18.2108C19.4639 16.9531 20.4588 15.9019 21.6696 15.1605C27.5075 11.6877 28.2396 11.744 28.9717 11.8004L32.9137 12.0632C34.1245 12.1195 34.9598 12.4292 39.0145 18.3704C39.174 18.5769 39.3805 18.7364 39.6996 18.7927L44.5333 19.5248C45.8473 19.7313 46.7389 20.9421 46.5324 22.2561C46.3259 23.5701 45.1152 24.4617 43.8012 24.2553L38.9675 23.5232C37.3907 23.2604 35.9735 22.4156 35.0818 21.1016C34.8753 20.7825 34.7158 20.5197 34.4999 20.2569L31.4026 30.0838L35.7107 34.3919C36.3395 35.0207 36.8651 35.8654 37.1842 36.7008L40.4974 46.3681C41.023 47.7853 40.2346 49.3621 38.8174 49.8408C38.4982 49.9441 38.2354 50.0004 37.9257 50.0004C36.7713 50.0004 35.7201 49.2683 35.2977 48.1608L31.9845 38.4934C31.9282 38.3902 31.8813 38.3339 31.825 38.2306L24.1474 30.5062C23.0399 29.3986 22.6269 27.8782 22.9367 26.4046L24.6167 18.9429C24.4572 19.0462 24.2976 19.1494 24.0911 19.262C23.6218 19.5248 23.2464 19.9472 22.9836 20.4165L20.4588 25.2501C20.0365 26.0385 19.2011 26.5078 18.3564 26.5078C17.9904 26.5078 17.6243 26.4046 17.2489 26.245C16.1038 25.6256 15.6815 24.2083 16.254 23.0539Z" fill="white"/>
<path d="M32.3318 0.030267C35.2508 0.349383 37.3532 2.96801 37.0341 5.87759C36.7149 8.79656 34.0963 10.899 31.1867 10.5798C28.2678 10.2607 26.1654 7.64211 26.4845 4.73253C26.7942 1.82295 29.4222 -0.279463 32.3318 0.030267Z" fill="white"/>
<path fill-rule="evenodd" clip-rule="evenodd" d="M11.0062 93.9475L14.4271 84.6777C15.6768 82.2567 17.5979 80.757 19.8547 80H41.3151C43.5719 80.7499 45.4072 82.2567 46.7427 84.6777L50.1635 93.9475H54.5913C54.927 93.9475 55.1769 94.1975 55.1769 94.5331V96.3685C55.1769 96.7042 54.927 97.0398 54.5913 97.0398H52.0061C52.7559 97.9611 53.5058 99.0466 54.2628 100.461C54.2628 106.052 54.3485 111.651 54.3485 117.329C54.3485 118.75 53.1773 120 51.6776 120H49.8422C48.3424 120 47.1712 118.75 47.1712 117.329V113.908H14.0129V117.329C14.0129 118.75 12.8416 120 11.3419 120H9.50652C8.00678 120 6.83557 118.75 6.83557 117.329C6.83557 111.651 6.92126 106.06 6.92126 100.461C7.67113 99.0395 8.421 97.9539 9.178 97.0398H6.58561C6.24996 97.0398 6 96.7042 6 96.3685V94.5331C6 94.1975 6.24996 93.9475 6.58561 93.9475H11.0062ZM20.276 83.6779C18.8548 83.9279 17.9407 84.8491 17.4337 86.0132C16.4339 88.7699 15.3483 91.9407 14.4271 94.6974H46.7356C45.8143 91.9407 44.6502 88.7699 43.729 86.0132C43.1434 84.842 42.3078 83.9279 40.8938 83.6779H20.276ZM45.8286 100.711C44.1575 100.711 42.822 102.046 42.822 103.717C42.822 105.388 44.1575 106.724 45.8286 106.724C47.414 106.724 48.7495 105.388 48.7495 103.717C48.7495 102.046 47.414 100.711 45.8286 100.711ZM15.3483 100.711C17.0195 100.711 18.3549 102.046 18.3549 103.717C18.3549 105.388 17.0195 106.724 15.3483 106.724C13.7629 106.724 12.4274 105.388 12.4274 103.717C12.4274 102.046 13.7629 100.711 15.3483 100.711Z" fill="white"/>
<path d="M62.0141 182.521C61.853 180.885 61.2952 179.113 60.6011 177.08L56.486 165.131C55.7919 163.099 54.9614 161.847 53.8831 161.054C52.7675 160.236 51.4909 160 49.9043 160H12.1496C10.563 160 9.29877 160.236 8.17083 161.054C7.09248 161.847 6.26202 163.099 5.56791 165.131L1.45282 177.08C0.758707 179.113 0.200938 180.885 0.0398049 182.521C-0.121328 184.331 0.188543 185.905 1.30408 187.355C3.36163 190.033 5.87778 190.02 10.8605 189.996C10.9225 189.996 10.749 189.996 12.3355 189.996H49.7308H51.2058C56.1885 190.02 58.7047 190.033 60.7622 187.355C61.8778 185.905 62.1876 184.331 62.0141 182.521ZM50.9951 175.159H45.281V180.873H39.5546V175.147H33.8406V180.873H28.1142V175.159H22.4125V180.873H16.6861V175.147H10.9721V169.42H16.6985V175.147H22.4001V169.432H28.1266V175.147H33.8406V169.42H39.567V175.147H45.281V169.432H51.0075V175.159H50.9951Z" fill="white"/>
<path d="M6 195.455L51.4545 150L56 154.545L10.5455 200L6 195.455Z" fill="#D50201"/>
<path d="M10.5455 150L56 195.455L51.4545 200L6 154.545L10.5455 150Z" fill="#D50201"/>
</svg>
