<svg width="183" height="180" viewBox="0 0 183 180" fill="none" xmlns="http://www.w3.org/2000/svg">
<path d="M72.17 151.957L66.614 154.346L61.5006 151.125C60.7653 150.662 59.8327 150.655 59.0911 151.109C58.3526 151.561 57.9373 152.382 58.0089 153.262L58.5627 159.281L53.9174 163.148C53.249 163.705 52.9498 164.6 53.1582 165.434C53.3619 166.277 54.0272 166.934 54.8738 167.127L60.7687 168.462L63.0111 174.075C63.3358 174.882 64.0885 175.434 64.9527 175.503C65.82 175.569 66.6476 175.14 67.0932 174.393L70.1822 169.199L76.214 168.803C77.0814 168.745 77.8405 168.201 78.1715 167.399C78.2877 167.116 78.345 166.82 78.345 166.525C78.345 165.982 78.1509 165.443 77.7785 165.021L73.7934 160.476L75.2767 154.615C75.4883 153.779 75.2082 152.88 74.5462 152.32C73.8905 151.755 72.9689 151.615 72.17 151.957ZM67.3144 159.012L69.7239 157.976L69.0809 160.518C68.8979 161.245 69.0825 162.017 69.5791 162.58L71.309 164.552L68.6942 164.724C67.943 164.771 67.2667 165.188 66.8831 165.835L65.5415 168.087L64.5691 165.655C64.2906 164.956 63.6859 164.444 62.9538 164.277L60.3963 163.697L62.4127 162.02C62.9904 161.539 63.2976 160.826 63.2244 160.058L62.9841 157.448L65.201 158.843C65.8344 159.247 66.6253 159.308 67.3144 159.012Z" fill="white"/>
<path d="M59.0918 3.81252C58.3534 4.26451 57.938 5.07617 58.0096 5.96581L58.5635 11.9862L53.9181 15.8535C53.2497 16.4105 52.9505 17.3065 53.159 18.1388C53.3643 18.9823 54.0279 19.6396 54.8746 19.8321L60.7695 21.1642L63.0118 26.7771C63.3365 27.584 64.0861 28.1362 64.9534 28.2047C65.8208 28.2715 66.6483 27.8418 67.0939 27.0986L70.183 21.9041L76.2148 21.5078C77.0821 21.4505 77.8412 20.9062 78.1723 20.1041C78.2885 19.8208 78.3457 19.5248 78.3457 19.2304C78.3457 18.6877 78.1516 18.1482 77.7792 17.7265L73.7942 13.1814L75.2774 7.31987C75.4891 6.48434 75.209 5.58835 74.5469 5.02498C73.8849 4.4616 72.9634 4.31994 72.1645 4.66371L66.6085 7.05251L61.4951 3.82817C60.7661 3.36188 59.8334 3.35575 59.0918 3.81252ZM67.3135 11.7172L69.723 10.6812L69.08 13.2227C68.897 13.9484 69.0816 14.7187 69.5782 15.2853L71.3081 17.2571L68.6933 17.429C67.9421 17.4767 67.2657 17.8937 66.8822 18.5382L65.5422 20.7902L64.5682 18.3584C64.2897 17.6597 63.6849 17.1472 62.9529 16.9802L60.397 16.4024L62.4118 14.725C62.9895 14.2444 63.2967 13.5267 63.2234 12.7627L62.9831 10.1528L65.2 11.5485C65.8335 11.9495 66.6243 12.0116 67.3135 11.7172Z" fill="white"/>
<path d="M39.0837 56.4874C41.2544 54.5744 44.1222 57.8306 41.9515 59.7435C39.7808 61.6565 36.9114 58.3987 39.0837 56.4874Z" fill="white"/>
<path d="M18.4847 38.9033C20.6555 36.9903 23.5232 40.2465 21.3526 42.1594C19.1818 44.0708 16.3141 40.8146 18.4847 38.9033Z" fill="white"/>
<path d="M1.03465 71.6392C3.20541 69.7262 6.07317 72.984 3.9025 74.8953C1.73174 76.8082 -1.13602 73.5521 1.03465 71.6392Z" fill="white"/>
<path d="M31.3999 174.296C33.5707 172.384 36.44 175.641 34.2693 177.552C32.0986 179.465 29.2292 176.209 31.3999 174.296Z" fill="white"/>
<path d="M38.6396 110.547C40.8104 108.636 43.6798 111.892 41.5091 113.804C39.3383 115.716 36.4689 112.46 38.6396 110.547Z" fill="white"/>
<path d="M9.50128 147.231C6.29288 150.056 5.9762 154.972 8.80741 158.185C11.6339 161.394 16.5483 161.706 19.7616 158.879C21.4995 157.348 22.3875 155.206 22.3875 153.049C22.3875 151.227 21.7509 149.397 20.4523 147.925C17.629 144.715 12.7146 144.405 9.50128 147.231ZM17.0303 150.941C18.1937 152.26 18.0712 154.286 16.7455 155.454C15.4229 156.621 13.3954 156.492 12.2321 155.169C11.699 154.563 11.4332 153.81 11.4332 153.056C11.4332 152.168 11.7976 151.288 12.517 150.653C13.8411 149.489 15.867 149.617 17.0303 150.941Z" fill="#D50201"/>
<path d="M68.6458 87.8014C64.0033 91.8914 63.558 99.0021 67.6416 103.649C71.7317 108.294 78.8423 108.743 83.4893 104.65C86.0054 102.435 87.2897 99.3345 87.2897 96.2202C87.2897 93.5831 86.3683 90.9332 84.4903 88.8024C80.4003 84.1599 73.2932 83.7097 68.6458 87.8014ZM81.0655 91.8214C83.4957 94.5747 83.2267 98.8033 80.4703 101.229C79.1351 102.406 77.4194 102.99 75.6449 102.881C73.8672 102.766 72.2407 101.972 71.0663 100.635C69.9523 99.3714 69.4032 97.7991 69.4032 96.2313C69.4032 94.3804 70.1672 92.5423 71.66 91.2278C74.4196 88.7977 78.6401 89.065 81.0655 91.8214Z" fill="#D50201"/>
<path d="M112.508 76.8907C109.33 76.6902 106.267 77.7374 103.875 79.8429C98.9442 84.1843 98.4671 91.7313 102.812 96.6647C104.916 99.0535 107.825 100.479 111 100.68C114.178 100.881 117.241 99.8334 119.631 97.7278C122.019 95.6239 123.447 92.7178 123.649 89.5396C123.665 89.2818 123.674 89.024 123.674 88.7677C123.674 85.8681 122.632 83.1022 120.697 80.9075C118.593 78.5202 115.683 77.0913 112.508 76.8907ZM117.271 83.9252C118.57 85.3989 119.229 87.3071 119.092 89.2501C118.966 91.2092 118.088 93.006 116.613 94.3061C113.571 96.9862 108.914 96.6934 106.232 93.6489C105.005 92.2547 104.4 90.5184 104.4 88.7884C104.4 86.7481 105.242 84.7174 106.889 83.2642C109.933 80.5842 114.59 80.8818 117.271 83.9247L117.271 83.9252Z" fill="#D50201"/>
<path d="M123.655 172.731C123.666 172.563 123.671 172.395 123.671 172.227C123.671 170.339 122.993 168.538 121.734 167.109C120.362 165.552 118.47 164.625 116.399 164.494C114.332 164.362 112.336 165.043 110.78 166.413L110.78 166.415C107.572 169.241 107.26 174.156 110.085 177.369C111.456 178.926 113.349 179.853 115.419 179.984C117.487 180.116 119.482 179.432 121.039 178.063C122.595 176.693 123.525 174.799 123.655 172.731ZM113.514 174.353C112.981 173.747 112.715 172.994 112.715 172.24C112.715 171.351 113.08 170.471 113.799 169.84C114.437 169.273 115.262 168.993 116.115 169.045C116.966 169.1 117.746 169.482 118.312 170.124C118.876 170.763 119.159 171.589 119.103 172.44C119.051 173.291 118.667 174.071 118.024 174.638C117.383 175.201 116.56 175.485 115.709 175.429C114.856 175.376 114.077 174.994 113.514 174.353Z" fill="#D50201"/>
<path d="M19.3362 79.4982C17.2689 79.3662 15.2732 80.0473 13.7167 81.4191C12.1603 82.791 11.2324 84.6832 11.1019 86.7506C10.9603 88.8306 11.651 90.8168 13.0228 92.3717C14.3946 93.9282 16.2869 94.856 18.3542 94.9865C20.4231 95.1186 22.4205 94.4342 23.9754 93.0624C25.5318 91.6905 26.4597 89.7983 26.5902 87.731C26.6013 87.5638 26.6061 87.3983 26.6061 87.2296C26.6061 85.3422 25.9265 83.5406 24.6661 82.1117C23.2958 80.5584 21.4035 79.6304 19.3362 79.4982ZM21.246 85.1304C21.8077 85.767 22.0974 86.5723 22.0369 87.4444C21.9844 88.2974 21.6009 89.0772 20.9579 89.6438C20.3197 90.2071 19.4954 90.4872 18.6423 90.4347C17.7909 90.3822 17.0111 89.9987 16.4445 89.3557C15.9273 88.7669 15.6456 88.0253 15.6456 87.247C15.6456 87.1786 15.6472 87.1086 15.652 87.0401C15.7045 86.1887 16.088 85.4089 16.731 84.8455L16.731 84.8439C17.3692 84.2805 18.1935 84.0004 19.045 84.053C19.8996 84.1055 20.6794 84.489 21.246 85.1304Z" fill="#D50201"/>
<path d="M1.52147 121.78C0.693931 122.727 0.779855 124.167 1.72678 125.001C2.67369 125.832 4.11558 125.739 4.94789 124.796C25.5432 101.398 50.5622 98.8547 50.8148 98.8322C52.0005 98.7224 52.8885 97.731 52.8885 96.5628C52.8885 96.4944 52.8869 96.4244 52.8789 96.3559C52.7643 95.1019 51.6598 94.1772 50.4058 94.2886C49.314 94.3857 23.3778 96.9543 1.51991 121.78L1.52147 121.78Z" fill="white"/>
<path d="M50.2998 78.0845C51.5157 78.0224 52.4611 77.0119 52.4611 75.8071C52.4611 75.7689 52.4611 75.7291 52.4595 75.6909C52.3974 74.4337 51.3264 73.4645 50.0691 73.5265C49.7762 73.5425 20.7351 74.6485 4.1981 48.9321C3.51535 47.8705 2.10532 47.565 1.04539 48.2477C-0.0129538 48.9273 -0.316927 50.3357 0.361055 51.4004C18.3607 79.396 49.0025 78.153 50.298 78.0846L50.2998 78.0845Z" fill="white"/>
<path d="M33.2332 145.972L33.2332 145.977C33.2332 147.236 34.2501 148.256 35.5105 148.259C36.7726 148.261 37.7943 147.242 37.7959 145.982C37.8182 131.313 53.0707 122.852 53.2251 122.767C53.9843 122.355 54.4156 121.569 54.4156 120.759C54.4156 120.391 54.3296 120.02 54.1418 119.675C53.5418 118.569 52.162 118.155 51.0528 118.754C50.3271 119.147 33.2584 128.56 33.2332 145.972Z" fill="white"/>
<path d="M50.3692 57.0659C51.4418 57.7248 52.8439 57.3922 53.5044 56.3195C53.7351 55.9471 53.8449 55.5317 53.8449 55.1259C53.8449 54.362 53.4598 53.614 52.7595 53.1796C52.5749 53.0634 34.1744 41.4871 37.7059 26.4494C37.9844 25.2272 37.2332 23.997 36.0062 23.7073C34.7792 23.4192 33.5506 24.1816 33.2641 25.407C28.9846 43.7008 49.494 56.5297 50.3692 57.0659Z" fill="white"/>
<path d="M103.341 50.7714C103.868 50.3337 104.163 49.686 104.163 49.0175C104.163 48.8393 104.142 48.6611 104.101 48.486C103.897 47.6425 103.232 46.9852 102.385 46.7927L93.0413 44.6776L89.4859 35.7846C89.1613 34.9777 88.4117 34.4255 87.5443 34.357C86.677 34.2902 85.8494 34.7183 85.4038 35.4631L80.5067 43.6941L70.9499 44.3259C70.0826 44.3832 69.325 44.9275 68.994 45.7312C68.663 46.5317 68.8142 47.4532 69.3871 48.1056L75.7053 55.3055L73.3531 64.5917C73.1431 65.4241 73.4232 66.3232 74.0836 66.8866C74.7457 67.45 75.6671 67.5916 76.4661 67.2479L85.2654 63.4649L93.3694 68.5703C94.1046 69.0334 95.0372 69.0397 95.7789 68.5862C96.5205 68.1326 96.9406 67.313 96.861 66.4329L95.9826 56.8937L103.341 50.7714ZM84.5702 58.8036L78.914 61.2337L80.4259 55.2671C80.6105 54.5414 80.4259 53.7679 79.9277 53.2046L75.8695 48.5784L82.0109 48.1694C82.7589 48.1184 83.4368 47.7047 83.8204 47.0601L86.9667 41.7718L89.2505 47.4866C89.529 48.1853 90.1338 48.6978 90.8658 48.8649L96.8687 50.224L92.1418 54.1613C91.6199 54.5973 91.3207 55.2403 91.3207 55.9151C91.3207 55.9835 91.3223 56.0535 91.3302 56.1251L91.8936 62.2539L86.688 58.9723C86.0499 58.5712 85.2561 58.506 84.5702 58.8036Z" fill="white"/>
<path d="M108.491 146.734C109.233 146.281 109.658 145.461 109.573 144.581L108.809 136.265L115.224 130.923C115.751 130.485 116.046 129.838 116.046 129.169C116.046 128.991 116.025 128.813 115.984 128.636C115.778 127.794 115.115 127.137 114.268 126.946L106.125 125.105L103.029 117.353C102.704 116.546 101.955 115.994 101.088 115.925C100.223 115.858 99.3926 116.286 98.947 117.031L94.6757 124.209L86.3461 124.758C85.4787 124.815 84.7212 125.359 84.3902 126.161C84.0591 126.968 84.2071 127.887 84.7832 128.539L90.2883 134.816L88.2368 142.91C88.022 143.756 88.3053 144.645 88.9673 145.208C89.6294 145.771 90.5508 145.913 91.3498 145.569L99.0222 142.272L106.085 146.723C106.817 147.181 107.753 147.188 108.491 146.734L108.491 146.734ZM98.3199 137.601L93.7939 139.547L95.005 134.771C95.1896 134.036 95.005 133.272 94.5069 132.707L91.2587 129.003L96.1729 128.677C96.9209 128.629 97.5989 128.212 97.9824 127.568L100.502 123.336L102.329 127.91C102.607 128.609 103.212 129.121 103.944 129.288L108.747 130.374L104.964 133.526C104.442 133.962 104.143 134.609 104.143 135.28C104.143 135.349 104.145 135.419 104.153 135.49L104.604 140.394L100.437 137.769C99.8 137.368 99.009 137.305 98.3199 137.601Z" fill="white"/>
<path d="M137.092 115.962C139.263 114.049 142.13 117.305 139.96 119.218C137.789 121.129 134.921 117.873 137.092 115.962Z" fill="white"/>
<path d="M157.687 133.546C159.857 131.635 162.727 134.891 160.554 136.802C158.384 138.715 155.516 135.459 157.687 133.546Z" fill="white"/>
<path d="M175.136 100.806C177.307 98.8931 180.175 102.149 178.004 104.062C175.833 105.974 172.966 102.717 175.136 100.806Z" fill="white"/>
<path d="M142.596 0.58176C144.767 -1.33118 147.636 1.92497 145.465 3.83791C143.294 5.75085 140.425 2.49311 142.596 0.58176Z" fill="white"/>
<path d="M137.524 61.9019C139.694 59.9905 142.562 63.2467 140.392 65.158C138.221 67.071 135.353 63.8148 137.524 61.9019Z" fill="white"/>
<path d="M172.162 23.1485C172.173 22.9814 172.178 22.8159 172.178 22.6472C172.178 20.7597 171.5 18.9582 170.241 17.5292C168.869 15.9728 166.977 15.0449 164.91 14.9145C162.841 14.7824 160.844 15.4667 159.289 16.8353C157.732 18.2072 156.804 20.0994 156.674 22.1668C156.539 24.2468 157.226 26.233 158.598 27.7879C159.97 29.3443 161.862 30.2722 163.929 30.4027C165.997 30.5332 167.992 29.8504 169.549 28.4786C171.104 27.1099 172.03 25.2158 172.162 23.1485ZM162.02 24.7718C161.502 24.183 161.221 23.4414 161.221 22.6631C161.221 22.5947 161.222 22.5247 161.227 22.4562C161.279 21.6048 161.663 20.825 162.306 20.2584C162.944 19.6951 163.769 19.415 164.622 19.4675C165.473 19.52 166.253 19.9035 166.819 20.5465C167.381 21.1831 167.666 21.9884 167.61 22.8605C167.558 23.7135 167.174 24.4933 166.531 25.0599C165.893 25.6233 165.069 25.9034 164.217 25.8508C163.366 25.7951 162.584 25.4132 162.02 24.7718Z" fill="#D50201"/>
<path d="M105.301 14.9391C103.745 16.3109 102.817 18.2032 102.686 20.2705C102.549 22.3553 103.238 24.3367 104.61 25.8916C107.437 29.1 112.351 29.4119 115.561 26.5871L115.561 26.5855C117.118 25.2136 118.046 23.3214 118.176 21.2541C118.187 21.087 118.192 20.9214 118.192 20.7527C118.192 18.8652 117.514 17.0637 116.255 15.6348C114.883 14.0783 112.991 13.1505 110.924 13.02C108.853 12.8863 106.858 13.5704 105.301 14.9391ZM112.83 18.652C113.392 19.2901 113.672 20.0891 113.621 20.966C113.568 21.819 113.185 22.5988 112.542 23.1654C111.219 24.3287 109.195 24.1982 108.029 22.8773C107.467 22.236 107.191 21.4036 107.238 20.5617C107.29 19.7103 107.674 18.9305 108.317 18.3639C108.955 17.8005 109.779 17.5204 110.632 17.5729C111.484 17.6255 112.265 18.009 112.83 18.652Z" fill="#D50201"/>
<path d="M155.474 94.3323C156.846 95.8887 158.738 96.8166 160.806 96.9471C162.875 97.0791 164.872 96.3948 166.427 95.023C168.165 93.492 169.053 91.3499 169.053 89.1965C169.053 87.3742 168.416 85.5441 167.118 84.072C165.746 82.5156 163.854 81.5877 161.786 81.4572C159.717 81.3251 157.72 82.0095 156.165 83.3781C152.961 86.2045 152.64 91.1141 155.474 94.3323ZM161.496 86.0136C162.349 86.0662 163.129 86.4497 163.694 87.0926C164.861 88.4136 164.73 90.4395 163.409 91.606C162.771 92.1694 161.947 92.4495 161.094 92.397C160.241 92.3444 159.461 91.9609 158.896 91.318C158.376 90.7291 158.097 89.9875 158.097 89.2092C158.097 89.1408 158.097 89.0708 158.102 89.0024C158.156 88.1509 158.538 87.3711 159.181 86.8045C159.822 86.2412 160.643 85.9611 161.496 86.0136Z" fill="#D50201"/>
<path d="M181.325 53.9288C181.705 53.4959 181.893 52.9564 181.893 52.4201C181.893 51.7883 181.634 51.158 181.12 50.7061C180.173 49.8753 178.731 49.9677 177.898 50.9114C157.303 74.3109 132.284 76.8524 132.031 76.8748C130.779 76.991 129.854 78.1066 129.967 79.3527C130.082 80.6068 131.186 81.5314 132.441 81.42C133.531 81.3229 159.468 78.7575 181.326 53.9288L181.325 53.9288Z" fill="white"/>
<path d="M132.549 97.6282C131.295 97.6919 130.316 98.7741 130.391 100.022C130.453 101.279 131.524 102.248 132.781 102.186C133.074 102.17 162.112 101.064 178.648 126.781C179.331 127.842 180.741 128.148 181.801 127.465C182.479 127.032 182.848 126.295 182.848 125.544C182.848 125.119 182.729 124.696 182.485 124.312C164.486 96.3184 133.844 97.5598 132.548 97.6282L132.549 97.6282Z" fill="white"/>
<path d="M149.616 29.7364L149.616 29.7317C149.616 28.4728 148.599 27.4527 147.338 27.4495C146.076 27.4479 145.055 28.4664 145.053 29.7269C145.031 44.3955 129.778 52.8571 129.624 52.9414C128.519 53.5414 128.107 54.9355 128.707 56.0305C129.307 57.1365 130.687 57.5503 131.796 56.9519C132.522 56.5636 149.59 47.149 149.616 29.7364Z" fill="white"/>
<path d="M132.476 118.643C131.403 117.984 130.001 118.316 129.341 119.389C128.679 120.462 129.01 121.867 130.084 122.529C130.272 122.644 148.674 134.212 145.137 149.259C144.857 150.486 145.61 151.715 146.837 152.001C148.064 152.289 149.293 151.527 149.579 150.302C149.983 148.576 150.168 146.902 150.168 145.282C150.168 129.716 133.269 119.128 132.476 118.643Z" fill="white"/>
</svg>
