<svg width="80" height="79" viewBox="0 0 80 79" fill="none" xmlns="http://www.w3.org/2000/svg">
<path fill-rule="evenodd" clip-rule="evenodd" d="M5.72994 63.2961C7.08193 61.2542 7.6926 55.1061 7.86225 52.033C7.91081 51.1525 8.08566 48.3879 7.63827 47.6534C6.4594 47.4618 4.18662 47.7479 3.72377 48.8138C3.23275 49.9449 3.58447 52.8039 3.67999 54.167C3.95902 58.1448 2.9829 61.4526 5.72994 63.2961V63.2961ZM31.3088 0.904645C34.3714 1.74502 37.0584 2.02427 39.3455 3.78923C37.7033 5.34424 31.3406 7.82226 28.5603 8.77521C23.8678 10.3833 19.7831 10.8805 14.4164 9.77459C15.1432 11.2425 17.6347 13.5273 19.7328 14.7083C22.6344 16.3421 25.1585 16.6945 28.8729 16.574C24.4389 24.5361 8.92047 27.9743 0.379637 23.0996C1.81284 31.4825 5.78542 38.6612 14.7481 39.731C15.1404 39.7779 15.5377 39.8145 15.9387 39.8426C22.4814 37.2664 34.7628 36.757 40.5187 36.8042C45.371 36.844 55.0802 37.1774 62.2964 38.8609C66.9036 37.631 70.603 34.8776 72.3461 29.2392C79.6785 5.5228 49.66 -2.98484 31.3088 0.904645V0.904645ZM12.6163 46.779C9.49228 49.9628 9.08897 62.4783 9.21483 68.5925C9.26989 71.2641 9.70397 71.4514 11.307 72.7547C14.1492 75.0657 21.3602 78.1302 25.284 78.2038C35.2532 78.3909 33.5154 75.1349 48.6306 77.1429C59.1446 78.5399 58.5563 79.7167 69.2179 74.4037C70.5779 73.7259 71.8552 72.8375 72.6541 71.6093C74.4359 68.8695 72.8393 57.9787 72.3728 54.0951C71.922 50.3427 71.5466 48.3666 69.6114 46.7977C64.2736 42.4701 47.4461 41.8151 40.5187 41.7582C33.5147 41.7012 16.847 42.4666 12.6163 46.779V46.779ZM76.9423 63.2961C75.5904 61.2542 74.9794 55.1061 74.8101 52.033C74.7617 51.1525 74.5867 48.3879 75.0341 47.6534C76.2131 47.4618 78.4857 47.7479 78.9486 48.8138C79.4393 49.9449 79.0879 52.8039 78.9923 54.167C78.7135 58.1448 79.6893 61.4526 76.9423 63.2961Z" fill="white"/>
</svg>
