<svg xmlns="http://www.w3.org/2000/svg" viewBox="0 0 19 19" fill="none">
	<path
		d="M13.6859 12.2326L13.6859 12.2326L13.6904 12.2341C14.7608 12.5878 15.8888 12.7672 17.0358 12.7672C17.5508 12.7672 17.9707 13.1871 17.9707 13.7021V16.9769C17.9707 17.492 17.5509 17.9118 17.0358 17.9118C8.24274 17.9118 1.08838 10.7575 1.08838 1.96446C1.08838 1.4494 1.50824 1.02954 2.02329 1.02954H5.30731C5.82236 1.02954 6.2422 1.44939 6.24217 1.96447V1.9645C6.24217 3.11093 6.42177 4.23704 6.77593 5.31119C6.88354 5.6578 6.79221 6.02027 6.54314 6.26901L6.51814 6.29398L6.49689 6.32221L5.0237 8.28051L4.83258 8.53457L4.98156 8.81541C6.25639 11.2185 7.76497 12.726 10.1837 14.0171L10.4655 14.1675L10.7204 13.9751L12.7311 12.4572L12.7615 12.4343L12.7881 12.407C12.858 12.3352 12.9929 12.2563 13.175 12.2155C13.3536 12.1755 13.5367 12.1817 13.6859 12.2326Z"
		stroke="#1F4251" />
</svg>