<svg width="162" height="116" viewBox="0 0 116 116" fill="none" xmlns="http://www.w3.org/2000/svg">
<g filter="url(#filter0_d_159_22)">
<path fill-rule="evenodd" clip-rule="evenodd" d="M51.0944 26.1602C51.0944 28.6134 51.2617 27.8803 51.6812 29.6802C50.5488 29.6802 47.1779 30.7184 46.1055 31.1453L41.2192 33.4457L36.9263 36.3395C35.6327 37.3051 32.6185 40.4501 31.6061 41.7263C29.8592 43.9288 28.6622 45.8434 27.4295 48.4035C26.6542 50.0135 26.0308 51.9427 25.5209 53.6821C25.2434 54.6293 25.1094 55.5653 24.9008 56.582C24.6885 57.6173 24.5469 58.723 24.5469 59.8947C22.6918 59.8947 20 59.4706 20 62.0949C20 63.4536 21.154 64.295 22.0534 64.295H93.0426C94.3066 64.295 95.0584 63.1874 95.0959 62.0831V61.9168C95.0631 60.8791 94.3863 59.8947 92.8959 59.8947H90.549C90.549 55.1955 88.618 49.8612 86.5439 46.1528C84.6077 42.6919 83.8372 41.8965 81.1969 39.0322C79.5837 37.2826 79.9188 37.8047 78.485 36.4642C77.5246 35.5657 75.4056 34.28 74.2409 33.5212C72.0094 32.0677 69.3167 31.1767 66.7351 30.3204C66.0695 30.0997 64.459 29.6802 63.7082 29.6802C64.1042 27.9806 64.295 28.6598 64.295 26.1602C64.295 23.1028 61.2015 20 58.1348 20H57.2545C54.1864 20 51.0944 23.0916 51.0944 26.1602ZM24.4002 75.0021V92.8958C24.4002 94.2017 25.2945 95.0959 26.6003 95.0959H33.2006V72.9487C31.4847 72.9487 26.2793 72.6435 25.3128 73.4206C24.928 73.73 24.4002 74.3618 24.4002 75.0021ZM37.6008 72.2151V95.0959H63.8549C67.2994 95.0959 70.5283 93.6865 72.6839 92.3381C75.4638 90.5992 84.6598 80.9626 87.4321 78.1921C88.9133 76.7119 89.5226 76.1241 89.5226 73.8284C89.5226 70.9464 85.098 68.008 81.8583 71.2979L72.3984 80.612C66.1304 86.8805 67.2173 86.1488 57.2545 86.1488C55.1079 86.1488 54.0491 81.878 57.9825 81.8902C59.6468 81.8948 61.3107 81.8944 62.9746 81.8953C64.9905 81.8967 65.7095 81.8977 66.9183 80.9987C70.203 78.5549 68.6647 73.386 64.7309 73.0991C63.5498 73.0129 61.9936 73.0912 60.7745 73.0958C58.6466 73.1033 58.5716 73.0523 57.6487 72.2611C57.3938 72.0422 57.4069 72.0942 57.1519 71.8777C55.2471 70.2639 55.2757 70.196 52.9036 69.0856C51.9807 68.6535 51.0438 68.3282 49.9568 68.0727C46.4134 67.2403 40.9267 67.9532 38.6919 69.933C38.1881 70.3793 37.6008 71.3237 37.6008 72.2151Z" fill="white"/>
</g>
<defs>
<filter id="filter0_d_159_22" x="0" y="0" width="115.096" height="115.096" filterUnits="userSpaceOnUse" color-interpolation-filters="sRGB">
<feFlood flood-opacity="0" result="BackgroundImageFix"/>
<feColorMatrix in="SourceAlpha" type="matrix" values="0 0 0 0 0 0 0 0 0 0 0 0 0 0 0 0 0 0 127 0" result="hardAlpha"/>
<feOffset/>
<feGaussianBlur stdDeviation="10"/>
<feComposite in2="hardAlpha" operator="out"/>
<feColorMatrix type="matrix" values="0 0 0 0 0.839216 0 0 0 0 0 0 0 0 0 0 0 0 0 0.75 0"/>
<feBlend mode="normal" in2="BackgroundImageFix" result="effect1_dropShadow_159_22"/>
<feBlend mode="normal" in="SourceGraphic" in2="effect1_dropShadow_159_22" result="shape"/>
</filter>
</defs>
</svg>
