<svg width="162" height="116" viewBox="0 0 116 116" fill="none" xmlns="http://www.w3.org/2000/svg">
<g filter="url(#filter0_d_159_11)">
<path fill-rule="evenodd" clip-rule="evenodd" d="M24.4002 76.4686V64.1482H20V59.748H37.6008V64.1482H33.2006V75.1488C33.2006 81.6713 37.822 86.2955 44.3473 86.2955H75.1488C79.8265 86.2955 83.5527 83.9937 85.4157 79.8419C86.7047 76.9692 86.2955 70.959 86.2955 67.3749C86.2955 61.4603 83.1603 58.1376 78.1372 56.4657C75.6836 55.6493 73.4403 54.8998 70.9862 54.0833C68.8986 53.3882 67.9242 52.9481 66.2279 51.8012C62.7084 49.4206 60.6677 45.5529 59.9735 41.3354C59.7106 39.739 59.9444 38.4942 59.5456 36.9231C58.3752 32.3096 54.3392 28.8004 48.6008 28.8004C43.9119 28.8004 39.0955 28.3706 35.7129 32.6325C33.9876 34.8064 33.2006 36.8392 33.2006 39.9472V50.9477H37.6008V55.3479H20V50.9477H24.4002V38.6273C24.4002 35.7846 25.2293 33.5128 26.1794 31.1664C26.3941 30.6368 26.6495 30.2731 26.9434 29.7303C29.8653 24.3299 36.6442 20 42.8808 20H49.7361C51.4182 20.0853 53.0957 20.3004 54.8478 20.7935C61.3942 22.6341 67.1035 28.8013 68.3629 35.5858C69.2211 40.2077 67.9363 41.365 71.0757 44.3136C72.217 45.3851 77.4511 46.8512 79.2368 47.4464C85.2091 49.4365 89.0684 51.2851 92.4646 56.9527C93.6818 58.9841 95.0959 62.52 95.0959 65.7616V76.6153C95.0959 79.4224 94.0559 82.7118 92.9038 84.6898C91.0187 87.9252 88.9695 90.5008 85.555 92.4487C82.9476 93.9359 79.9558 95.0959 76.4686 95.0959H43.0275C39.5305 95.0959 36.684 93.9626 34.0326 92.5035C31.1102 90.8959 27.4838 87.0811 26.2202 84.0354C25.294 81.8025 24.4002 79.5494 24.4002 76.4686Z" fill="white"/>
</g>
<defs>
<filter id="filter0_d_159_11" x="0" y="0" width="115.096" height="115.096" filterUnits="userSpaceOnUse" color-interpolation-filters="sRGB">
<feFlood flood-opacity="0" result="BackgroundImageFix"/>
<feColorMatrix in="SourceAlpha" type="matrix" values="0 0 0 0 0 0 0 0 0 0 0 0 0 0 0 0 0 0 127 0" result="hardAlpha"/>
<feOffset/>
<feGaussianBlur stdDeviation="10"/>
<feComposite in2="hardAlpha" operator="out"/>
<feColorMatrix type="matrix" values="0 0 0 0 0.839216 0 0 0 0 0 0 0 0 0 0 0 0 0 0.75 0"/>
<feBlend mode="normal" in2="BackgroundImageFix" result="effect1_dropShadow_159_11"/>
<feBlend mode="normal" in="SourceGraphic" in2="effect1_dropShadow_159_11" result="shape"/>
</filter>
</defs>
</svg>
