<svg width="300" height="199" viewBox="0 0 300 199" fill="none" xmlns="http://www.w3.org/2000/svg">
<path d="M42.0779 140L28.9012 163.79C28.4633 164.576 27.9391 165.31 27.3353 165.991C26.7316 166.665 25.8954 167.26 24.821 167.762C23.7459 168.264 22.4521 168.516 20.9525 168.516C19.5131 168.516 18.2388 168.252 17.1242 167.723C16.0095 167.194 15.1141 166.572 14.4439 165.853C13.7672 165.138 13.3094 164.504 13.0573 163.948L0 140H9.07618L19.5131 158.72C19.8115 159.262 20.0371 159.618 20.1831 159.804C20.3357 159.982 20.5743 160.075 20.9128 160.075C21.2777 160.075 21.5366 159.976 21.7022 159.783C21.8615 159.593 22.0873 159.235 22.3723 158.72L32.8821 140H42.0779ZM82.703 167.762H74.4626C73.839 164.331 73.2415 161.714 72.671 159.916C72.1005 158.111 71.3175 157.213 70.3159 157.213H52.1164V167.762H44.1147V150.827H68.9622C69.6458 150.827 70.2626 150.622 70.8067 150.219C71.3509 149.816 71.6229 149.287 71.6229 148.646C71.6229 148.388 71.5301 148.09 71.3509 147.747C71.1716 147.41 70.8927 147.112 70.5215 146.868C70.1567 146.623 69.6852 146.504 69.1148 146.504H44.1147V140H74.6151C76.453 140 77.7802 140.516 78.5957 141.54C79.412 142.565 79.8234 143.761 79.8234 145.129V150.741C79.8234 151.905 79.6176 152.757 79.2133 153.305C78.8015 153.855 77.9721 154.47 76.7119 155.156C77.5277 155.593 78.1116 155.937 78.4567 156.181C78.7952 156.426 79.2196 156.949 79.7241 157.748C80.235 158.548 80.7321 159.737 81.2234 161.311C81.7143 162.89 82.2054 165.038 82.703 167.762ZM180.5 167.762H172.26C171.636 164.331 171.039 161.714 170.468 159.916C169.898 158.111 169.115 157.213 168.114 157.213H149.914V167.762H141.912V150.827H166.759C167.443 150.827 168.06 150.622 168.604 150.219C169.148 149.816 169.42 149.287 169.42 148.646C169.42 148.388 169.327 148.091 169.148 147.747C168.969 147.41 168.69 147.112 168.32 146.868C167.955 146.623 167.482 146.504 166.913 146.504H141.912V140H172.412C174.251 140 175.578 140.516 176.393 141.54C177.209 142.565 177.621 143.761 177.621 145.129V150.741C177.621 151.905 177.415 152.757 177.011 153.305C176.599 153.855 175.769 154.47 174.509 155.156C175.325 155.593 175.909 155.937 176.255 156.181C176.593 156.426 177.017 156.949 177.522 157.748C178.033 158.548 178.529 159.737 179.021 161.311C179.512 162.89 180.002 165.038 180.5 167.762ZM214.802 167.762H191.873C190.281 167.762 188.821 167.313 187.494 166.407C186.166 165.501 185.126 164.391 184.362 163.076C183.606 161.76 183.227 160.51 183.227 159.321V147.707C183.227 146.504 183.705 145.308 184.654 144.105C185.61 142.902 186.743 141.917 188.057 141.15C189.371 140.383 190.493 140 191.428 140H214.199V146.346H193.929C193.426 146.346 192.948 146.471 192.497 146.722C192.052 146.973 191.68 147.311 191.389 147.72C191.103 148.137 190.957 148.573 190.957 149.042V150.669H214.046V156.935H191.109V159.163C191.109 159.705 191.428 160.188 192.071 160.598C192.715 161.014 193.333 161.218 193.929 161.218H214.802V167.762ZM257.359 161.7C257.359 162.501 257.106 163.446 256.609 164.537C256.111 165.627 255.302 166.586 254.181 167.405C253.059 168.225 251.639 168.635 249.914 168.635C248.143 168.635 246.829 168.39 245.973 167.908C245.117 167.426 244.202 166.533 243.233 165.223L229.697 148.956C229.267 148.388 228.928 148.024 228.676 147.866C228.424 147.701 228.113 147.621 227.734 147.621C227.489 147.621 227.236 147.714 226.978 147.899C226.719 148.091 226.587 148.349 226.587 148.686V167.723H218.705V145.625C218.705 145.235 218.829 144.706 219.082 144.045C219.335 143.378 219.753 142.69 220.336 141.97C220.921 141.256 221.689 140.648 222.659 140.152C223.621 139.656 224.789 139.405 226.142 139.405C227.866 139.405 229.221 139.689 230.196 140.264C231.171 140.84 231.96 141.467 232.558 142.135L246.186 158.119C246.617 158.7 246.975 159.07 247.273 159.229C247.572 159.394 247.924 159.472 248.328 159.472C248.793 159.472 249.084 159.334 249.191 159.056C249.304 158.778 249.357 158.389 249.357 157.886V140H257.359V161.7ZM300 167.762H291.64V165.826C291.422 166.3 290.977 166.744 290.32 167.154C289.657 167.556 289.06 167.762 288.529 167.762H265.89C265.28 167.762 264.67 167.603 264.053 167.286C263.435 166.969 262.932 166.526 262.547 165.964C262.156 165.396 261.956 164.755 261.943 164.047C261.929 162.68 261.917 160.948 261.896 158.858C261.876 156.764 261.863 155.66 261.863 155.547C261.863 153.98 262.281 152.751 263.117 151.859C263.954 150.959 264.928 150.51 266.044 150.51H287.461C288.45 150.51 289.311 150.761 290.048 151.264C290.784 151.766 291.315 152.275 291.64 152.777V150.253C291.64 149.723 291.48 149.188 291.163 148.639C290.845 148.097 290.4 147.641 289.816 147.284C289.232 146.921 288.549 146.742 287.773 146.742H262.135V140H291.043C292.258 140 293.412 140.298 294.501 140.892C295.589 141.487 296.55 142.254 297.38 143.206C298.202 144.151 298.853 145.136 299.31 146.154C299.768 147.178 300 148.084 300 148.884V167.762ZM290.048 159.122C290.048 158.778 289.916 158.461 289.657 158.171C289.398 157.88 289.08 157.649 288.695 157.47C288.316 157.299 288.005 157.213 287.773 157.213H271.975C271.251 157.213 270.74 157.458 270.456 157.946C270.176 158.436 270.031 158.819 270.031 159.083C270.031 159.651 270.217 160.108 270.588 160.458C270.954 160.808 271.325 160.981 271.702 160.981H288.217C288.582 160.981 288.98 160.788 289.404 160.411C289.836 160.028 290.048 159.599 290.048 159.122ZM138.057 167.762H129.698V165.826C129.479 166.3 129.034 166.744 128.377 167.154C127.714 167.556 127.117 167.762 126.586 167.762H103.948C103.338 167.762 102.727 167.603 102.11 167.286C101.493 166.969 100.989 166.526 100.604 165.964C100.212 165.396 100.013 164.755 100 164.047C99.9868 162.68 99.9737 160.948 99.9537 158.858C99.9335 156.764 99.9203 155.66 99.9203 155.547C99.9203 153.98 100.339 152.751 101.174 151.859C102.01 150.959 102.986 150.51 104.1 150.51H125.518C126.507 150.51 127.369 150.761 128.105 151.264C128.842 151.766 129.373 152.275 129.698 152.777V150.253C129.698 149.723 129.538 149.188 129.22 148.639C128.901 148.097 128.457 147.641 127.873 147.284C127.289 146.921 126.606 146.742 125.83 146.742H100.193V140H129.101C130.315 140 131.469 140.298 132.557 140.892C133.645 141.487 134.607 142.254 135.437 143.206C136.26 144.151 136.91 145.136 137.367 146.154C137.826 147.178 138.057 148.084 138.057 148.884V167.762ZM128.105 159.122C128.105 158.778 127.973 158.461 127.714 158.171C127.455 157.88 127.137 157.649 126.752 157.47C126.374 157.299 126.062 157.213 125.83 157.213H110.032C109.309 157.213 108.798 157.458 108.513 157.946C108.234 158.436 108.088 158.819 108.088 159.083C108.088 159.651 108.274 160.108 108.645 160.458C109.01 160.808 109.382 160.981 109.76 160.981H126.274C126.639 160.981 127.037 160.788 127.462 160.411C127.893 160.028 128.105 159.599 128.105 159.122Z" fill="white"/>
<path fill-rule="evenodd" clip-rule="evenodd" d="M98.8156 95.0902C100.848 92.0226 101.766 82.7863 102.021 78.1696C102.094 76.8468 102.357 72.6935 101.685 71.59C99.9123 71.3022 96.4955 71.732 95.7998 73.3333C95.0615 75.0326 95.5903 79.3277 95.7339 81.3755C96.1534 87.3514 94.6859 92.3207 98.8156 95.0902ZM137.27 1.35905C141.874 2.62155 145.913 3.04107 149.352 5.69259C146.883 8.02869 137.318 11.7514 133.138 13.1831C126.083 15.5989 119.943 16.3459 111.875 14.6844C112.967 16.8897 116.713 20.3222 119.867 22.0964C124.229 24.5509 128.024 25.0803 133.608 24.8992C126.942 36.8608 103.612 42.026 90.7722 34.7027C92.9269 47.2964 98.8991 58.081 112.373 59.6882C112.963 59.7586 113.56 59.8136 114.163 59.8558C123.999 55.9856 142.462 55.2203 151.116 55.2912C158.41 55.351 173.006 55.8519 183.854 58.381C190.782 56.5333 196.343 52.3969 198.963 43.9263C209.986 8.29694 164.858 -4.48415 137.27 1.35905ZM109.168 70.2764C104.472 75.0595 103.866 93.8616 104.055 103.047C104.137 107.061 104.79 107.342 107.2 109.3C111.473 112.772 122.313 117.376 128.212 117.486C143.2 117.767 140.587 112.876 163.311 115.892C179.117 117.991 178.232 119.759 194.261 111.777C196.305 110.759 198.225 109.424 199.426 107.579C202.105 103.463 199.704 87.1018 199.004 81.2675C198.326 75.6302 197.762 72.6615 194.851 70.3045C186.828 63.8031 161.53 62.8191 151.116 62.7337C140.586 62.648 115.529 63.7979 109.168 70.2764ZM205.873 95.0902C203.84 92.0226 202.921 82.7863 202.667 78.1696C202.595 76.8468 202.332 72.6935 203.004 71.59C204.777 71.3022 208.194 71.732 208.89 73.3333C209.626 75.0326 209.099 79.3277 208.954 81.3755C208.535 87.3514 210.002 92.3207 205.873 95.0902Z" fill="white"/>
<path d="M112.468 198.281H107.419V187.44C107.419 187.261 107.342 187.107 107.187 186.976C107.041 186.838 106.903 186.769 106.773 186.769C106.415 186.769 106.163 186.928 106.016 187.245L99.9552 198.281H95.1744L88.9303 187.195C88.8976 187.059 88.8286 186.935 88.7228 186.83C88.6171 186.725 88.5033 186.647 88.3814 186.599C88.2676 186.542 88.1781 186.513 88.113 186.513C87.9586 186.513 87.8203 186.594 87.6984 186.757C87.5765 186.92 87.5154 187.09 87.5154 187.269V198.281H82.564V184.819C82.564 184.168 82.7225 183.57 83.0397 183.025C83.3567 182.474 83.7551 182.009 84.2348 181.635C84.7145 181.261 85.2227 180.973 85.7592 180.77C86.2959 180.558 86.7635 180.453 87.1619 180.453C88.3 180.453 89.2514 180.746 90.0157 181.33C90.7879 181.907 91.593 182.903 92.4304 184.318L97.4307 193.329L102.577 184.294C103.244 183.041 103.972 182.09 104.76 181.44C105.549 180.782 106.525 180.453 107.687 180.453C108.37 180.453 109.009 180.587 109.602 180.856C110.204 181.123 110.72 181.485 111.151 181.94C111.582 182.395 111.907 182.896 112.127 183.44C112.354 183.985 112.468 184.514 112.468 185.026V198.281Z" fill="white"/>
<path d="M135.874 198.281H130.849V180.818H135.874V198.281Z" fill="white"/>
<path d="M177.597 198.281H170.256L161.938 191.416V187.391L169.877 180.818H176.573L166.573 189.342L177.597 198.281ZM158.865 198.281H153.913V180.818H158.865V198.281Z" fill="white"/>
<path d="M217.274 195.61C217.274 196.342 217.057 196.976 216.628 197.512C216.204 198.041 215.607 198.305 214.834 198.305H194.602V194.013H210.834C211.118 194.013 211.42 193.911 211.736 193.708C212.053 193.496 212.212 193.179 212.212 192.757C212.212 192.529 212.143 192.314 212.005 192.111C211.874 191.907 211.676 191.745 211.406 191.623C211.139 191.501 210.846 191.44 210.528 191.44H198.248C197.663 191.44 197.138 191.294 196.675 191.001C196.22 190.7 195.866 190.355 195.614 189.964C195.37 189.566 195.247 189.24 195.247 188.989V183.318C195.247 182.831 195.516 182.294 196.053 181.709C196.597 181.116 197.296 180.818 198.15 180.818H216.322V184.965H201.32C201.012 184.965 200.764 185.095 200.578 185.355C200.39 185.615 200.297 185.887 200.297 186.172C200.297 186.432 200.423 186.709 200.675 187.002C200.936 187.293 201.301 187.44 201.773 187.44H214.078C215.168 187.44 215.972 187.721 216.492 188.282C217.012 188.842 217.274 189.578 217.274 190.489V195.61Z" fill="white"/>
</svg>
