<svg width="162" height="116" viewBox="0 0 127 106" fill="none" xmlns="http://www.w3.org/2000/svg">
<g filter="url(#filter0_d_159_23)">
<path fill-rule="evenodd" clip-rule="evenodd" d="M20 56.0142V70.9632C20 72.8402 21.6615 74.331 23.5591 74.3687C27.8316 74.4533 26.9122 74.9392 27.1431 77.9197C27.4582 81.9896 30.4396 85.2328 33.9296 85.2328H45.9909C47.7529 85.2328 49.8402 84.6461 51.139 84.0954C53.3336 83.1653 56.588 80.5135 58.6101 78.9958C60.8537 77.3119 61.1095 76.9089 63.9977 76.9089C68.2874 76.9089 72.9939 85.2328 80.9856 85.2328H93.0469C94.8724 85.2328 96.8636 83.9662 97.7645 82.9859C100.938 79.5332 99.1672 76.138 100.267 74.9559C100.918 74.2554 101.976 74.3726 103.247 74.3683C105.271 74.3618 106.977 72.9141 106.977 70.9632V56.0142C106.977 54.1368 105.315 52.646 103.417 52.6083C102.142 52.5834 101.021 52.7177 100.353 52.1056C99.047 50.9081 101.027 47.6958 97.8456 44.0804C96.9258 43.0344 94.9454 41.7442 93.0469 41.7442H33.9296C32.1041 41.7442 30.113 43.0108 29.212 43.9916C26.0001 47.4863 27.8771 50.7107 26.683 51.9949C25.9289 52.8057 25.1387 52.604 23.7295 52.6087C21.7053 52.6156 20 54.0629 20 56.0142Z" fill="white"/>
<path fill-rule="evenodd" clip-rule="evenodd" d="M52.616 23.3978V31.2118C52.616 33.2914 54.6226 34.6096 56.6932 34.6096H70.2833C72.3539 34.6096 74.3606 33.2914 74.3606 31.2118V23.3978C74.3606 21.6392 72.7213 20 70.9628 20H56.0137C54.2552 20 52.616 21.6392 52.616 23.3978Z" fill="white"/>
</g>
<defs>
<filter id="filter0_d_159_23" x="-3.05176e-05" y="0" width="126.977" height="105.233" filterUnits="userSpaceOnUse" color-interpolation-filters="sRGB">
<feFlood flood-opacity="0" result="BackgroundImageFix"/>
<feColorMatrix in="SourceAlpha" type="matrix" values="0 0 0 0 0 0 0 0 0 0 0 0 0 0 0 0 0 0 127 0" result="hardAlpha"/>
<feOffset/>
<feGaussianBlur stdDeviation="10"/>
<feComposite in2="hardAlpha" operator="out"/>
<feColorMatrix type="matrix" values="0 0 0 0 0.839216 0 0 0 0 0 0 0 0 0 0 0 0 0 0.75 0"/>
<feBlend mode="normal" in2="BackgroundImageFix" result="effect1_dropShadow_159_23"/>
<feBlend mode="normal" in="SourceGraphic" in2="effect1_dropShadow_159_23" result="shape"/>
</filter>
</defs>
</svg>
